<svg width="320" height="200" fill="none" xmlns="http://www.w3.org/2000/svg"><path d="M10 176v-19c0-5.523 4.477-10 10-10h90M10 176h300m-300 0H0m110-29v-40c0-5.523 4.477-10 10-10h80c5.523 0 10 4.477 10 10v20m-100 20v29m100-49h90c5.523 0 10 4.477 10 10v39m-100-49v49m100 0h10" stroke="#009FDA" stroke-width="10"/><path d="M185 92V75c0-13.807-11.193-25-25-25v0c-13.807 0-25 11.193-25 25v17m25-42c11.046 0 20-8.954 20-20s-8.954-20-20-20-20 8.954-20 20 8.954 20 20 20zm125 72v-17c0-13.807-11.193-25-25-25v0c-13.807 0-25 11.193-25 25v17m25-42c11.046 0 20-8.954 20-20s-8.954-20-20-20-20 8.954-20 20 8.954 20 20 20zM85 142v-17c0-13.807-11.193-25-25-25v0c-13.807 0-25 11.193-25 25v17m25-42c11.046 0 20-8.954 20-20s-8.954-20-20-20-20 8.954-20 20 8.954 20 20 20z" stroke="#165EA0" stroke-width="10"/></svg>