<svg xmlns="http://www.w3.org/2000/svg" xmlns:xlink="http://www.w3.org/1999/xlink"><symbol id="ico-facebook" viewBox="0 0 8 16">
<path d="M2.08846 15.3653H5.13257V8.00008H7.16198L7.43159 5.46332H5.13257L5.13502 4.19371C5.13502 3.53195 5.19875 3.17655 6.14728 3.17655H7.41689V0.634888H5.38502C2.9463 0.634888 2.08846 1.86773 2.08846 3.93881V5.46332H0.568848V8.00008H2.08846V15.3653Z"/>
</symbol><symbol id="ico-instagram" viewBox="0 0 20 20">
<path fill-rule="evenodd" clip-rule="evenodd" d="M5.38838 10.0004C5.38838 7.45366 7.45322 5.38826 10.0006 5.38826C12.5479 5.38826 14.6117 7.45366 14.6117 10.0004C14.6117 12.5472 12.5479 14.6116 10.0006 14.6116C7.45322 14.6116 5.38838 12.5472 5.38838 10.0004ZM10.0006 7.50591C8.62293 7.50591 7.50603 8.62304 7.50603 10.0004C7.50603 11.3772 8.62233 12.494 10.0006 12.494C11.3782 12.494 12.4941 11.3778 12.4941 10.0004C12.4941 8.62243 11.3776 7.50591 10.0006 7.50591Z"/>
<path d="M13.3089 5.43382C13.3089 4.70296 13.9015 4.11029 14.6324 4.11029C15.3633 4.11029 15.9559 4.70296 15.9559 5.43382C15.9559 6.16469 15.3633 6.75735 14.6324 6.75735C13.9015 6.75735 13.3089 6.16469 13.3089 5.43382Z"/>
<path fill-rule="evenodd" clip-rule="evenodd" d="M6.02947 0.735229C3.10561 0.735229 0.735352 3.10549 0.735352 6.02935V13.9705C0.735352 16.8944 3.10561 19.2646 6.02947 19.2646H13.9706C16.8945 19.2646 19.2648 16.8944 19.2648 13.9705V6.02935C19.2648 3.10549 16.8945 0.735229 13.9706 0.735229H6.02947ZM13.9706 2.85288H6.02947C4.27515 2.85288 2.853 4.27503 2.853 6.02935V13.9705C2.853 15.7248 4.27515 17.147 6.02947 17.147H13.9706C15.725 17.147 17.1471 15.7248 17.1471 13.9705V6.02935C17.1471 4.27503 15.725 2.85288 13.9706 2.85288Z"/>
</symbol><symbol id="ico-linkedin" viewBox="0 0 14 14">
<path d="M13.8649 13.7352V8.65679C13.8649 5.9362 12.4139 4.67149 10.4777 4.67149C8.91394 4.67149 8.21541 5.53179 7.82571 6.13473V4.87983H4.88208C4.9213 5.71071 4.88208 13.7352 4.88208 13.7352H7.82571V8.78914C7.82571 8.52444 7.84531 8.25973 7.9213 8.071C8.13453 7.54159 8.61737 6.99502 9.4311 6.99502C10.4973 6.99502 10.9237 7.8063 10.9237 8.99747V13.7352H13.8649ZM1.77914 3.67149C2.80365 3.67149 3.44336 2.99012 3.44336 2.14208C3.42375 1.27444 2.80365 0.612671 1.7963 0.612671C0.788943 0.612671 0.13208 1.27198 0.13208 2.14208C0.13208 2.99257 0.771787 3.67149 1.75953 3.67149H1.77914ZM3.25218 13.7352V4.87983H0.308551V13.7352H3.25218Z"/>
</symbol><symbol id="ico-telegram" viewBox="0 0 16 14">
<path d="M6.29094 9.10527L6.02822 12.8005C6.40411 12.8005 6.56691 12.6391 6.76213 12.4452L8.52445 10.761L12.1762 13.4352C12.8459 13.8084 13.3177 13.6119 13.4984 12.8191L15.8954 1.58766L15.896 1.587C16.1085 0.597003 15.538 0.209873 14.8855 0.452739L0.796179 5.84675C-0.165388 6.21999 -0.150829 6.75601 0.632719 6.99888L4.23479 8.11924L12.6017 2.88405C12.9954 2.62332 13.3535 2.76758 13.059 3.02831L6.29094 9.10527Z"/>
</symbol><symbol id="ico-youtube" viewBox="0 0 20 13">
<path fill-rule="evenodd" clip-rule="evenodd" d="M17.2238 0.398851C18.0271 0.606168 18.6555 1.22812 18.8758 2.03147C19.1414 3.50213 19.271 4.99222 19.2645 6.48879C19.271 7.98535 19.1414 9.47544 18.8758 10.9461C18.6555 11.7495 18.0206 12.3714 17.2173 12.5787C15.7725 12.9674 9.9871 12.9674 9.9871 12.9674C9.9871 12.9674 4.20166 12.9674 2.75692 12.5787C1.96005 12.3649 1.3381 11.743 1.1243 10.9461C0.858677 9.47544 0.729104 7.98535 0.735583 6.48879C0.729104 4.99222 0.858677 3.50213 1.1243 2.03147C1.3381 1.2346 1.96005 0.612647 2.75692 0.398851C4.20166 0.0101318 9.9871 0.0101318 9.9871 0.0101318C9.9871 0.0101318 15.779 0.0101318 17.2238 0.398851ZM12.9474 6.48872L8.14022 9.26806V3.70938L12.9474 6.48872Z"/>
</symbol><symbol id="logo" viewBox="0 0 222 27">
<path d="M79.564 0.379337C79.7079 0.253447 69.4119 16.5652 69.3669 16.4933V25.6833C69.3669 25.8092 60.7704 25.8092 60.8154 25.6833V16.4933C60.8154 16.4933 50.4744 0.253447 50.6182 0.379337C50.4744 0.253447 59.7183 0.253447 59.7723 0.379337C59.7183 0.253447 65.0866 8.72407 65.0866 8.76903C65.0866 8.81399 70.4819 0.253447 70.401 0.379337C70.455 0.253447 79.7079 0.253447 79.564 0.379337ZM45.9333 0.379337C45.9333 0.253447 37.076 0.253447 37.121 0.379337C37.076 0.253447 26.8519 25.8092 26.9688 25.6833C26.825 25.8092 35.5384 25.8092 35.6283 25.6833C35.7182 25.5574 36.8332 22.2033 36.8782 22.0864C36.8782 22.1764 45.8704 22.1764 45.8704 22.0864C45.8704 22.1764 47.0214 25.5484 47.0484 25.6833C47.0753 25.8182 56.0405 25.8092 55.9146 25.6833C56.0495 25.8092 45.9783 0.253447 45.9333 0.379337ZM39.0453 15.9987C39.0453 15.9987 41.5182 8.87694 41.5182 8.91291C41.5182 8.94887 43.8741 16.0347 43.8471 15.9987C43.8202 15.9628 39.0183 16.0347 39.0453 15.9987ZM20.8542 0.298407C18.6511 0.298407 16.448 0.298408 16.5199 0.388329V8.69709C16.5199 8.69709 14.5686 8.69709 12.5904 8.69709C10.6121 8.69709 8.65179 8.69709 8.66977 8.69709V0.388329C8.73272 0.325384 6.53863 0.298407 4.33555 0.298407C2.13247 0.298407 -0.0616224 0.298408 0.00132274 0.388329V25.6923C0.00132274 25.7552 2.16844 25.7822 4.33555 25.7822C6.50266 25.7822 8.67877 25.7822 8.66977 25.6923V17.0059C8.66977 17.0059 10.6301 17.0059 12.5904 17.0059C14.5596 17.0059 16.5199 17.0059 16.5199 17.0059V25.6923C16.5199 25.7552 18.6781 25.7822 20.8542 25.7822C23.0303 25.7822 25.1974 25.7822 25.1884 25.6923V0.388329C25.2513 0.325384 23.0483 0.298407 20.8542 0.298407ZM92.5577 9.20965C89.7971 8.75104 87.0815 8.90391 86.8747 7.75291C86.6678 6.60192 88.0886 6.45804 89.1587 6.51199C91.4067 6.42207 94.6349 7.41121 96.5143 8.12159L100.165 2.41157C96.3089 0.546447 92.0264 -0.26041 87.7559 0.0736032C81.857 0.51422 78.3321 4.15605 78.5389 8.40035C78.5389 13.8496 83.9342 15.4502 86.533 15.8908C90.3546 16.6282 93.313 16.3045 93.1962 17.7522C93.1962 18.7413 91.3438 19.0651 89.3835 18.9392C86.5243 18.8875 83.7307 18.0743 81.2905 16.5832L77.4778 22.5091C81.5452 25.2141 86.4172 26.4424 91.2808 25.989C96.811 25.4855 101.037 22.8777 101.424 18.3637C102.251 12.294 97.3595 9.91103 92.5217 9.20965H92.5577ZM112.188 0.882898H115.784C116.275 0.856015 116.766 0.926393 117.229 1.08998C117.692 1.25357 118.118 1.50713 118.482 1.83607C118.76 2.12957 118.976 2.47567 119.118 2.85402C119.26 3.23237 119.325 3.63532 119.309 4.03915V4.0931C119.34 4.74443 119.152 5.3872 118.775 5.91975C118.399 6.4523 117.856 6.84423 117.232 7.03354L119.588 10.9182H117.673L115.533 7.36625H113.833V10.9092H112.17L112.188 0.882898ZM115.641 5.89154C116.926 5.89154 117.646 5.19914 117.646 4.15605C117.646 3.02303 116.918 2.42955 115.668 2.42955H113.869V5.91851L115.641 5.89154ZM120.254 7.17742V7.0875C120.254 4.81248 121.629 3.1759 123.491 3.1759C125.55 3.1759 126.647 4.9024 126.647 7.17742C126.647 7.27633 126.647 7.50113 126.647 7.73493H121.89C121.888 8.24936 122.089 8.74394 122.449 9.11105C122.809 9.47817 123.3 9.68812 123.814 9.69522C124.144 9.68738 124.469 9.61237 124.769 9.47477C125.069 9.33717 125.338 9.13987 125.559 8.89492L126.404 9.90204C126.067 10.2815 125.65 10.5827 125.185 10.7846C124.719 10.9865 124.214 11.0842 123.707 11.071C121.773 11.071 120.254 9.57833 120.254 7.17742ZM125.064 6.59292C124.983 5.38797 124.435 4.51574 123.491 4.51574C122.547 4.51574 121.971 5.29805 121.863 6.59292H125.064ZM127.546 7.05153C127.546 4.7855 129.021 3.14893 131.017 3.14893C131.473 3.13928 131.926 3.22645 132.347 3.4047C132.767 3.58295 133.144 3.84822 133.454 4.18302L132.555 5.36999C132.37 5.14087 132.138 4.95466 131.874 4.82424C131.61 4.69382 131.321 4.62231 131.026 4.61465C129.965 4.61465 129.228 5.63076 129.228 7.06052V7.17742C129.228 8.65213 130.001 9.64127 131.107 9.64127C131.405 9.62929 131.697 9.55415 131.964 9.42083C132.23 9.28751 132.465 9.09905 132.654 8.86795L133.553 9.94701C133.245 10.3156 132.858 10.6098 132.421 10.8076C131.983 11.0054 131.506 11.1016 131.026 11.089C128.985 11.071 127.546 9.47941 127.546 7.22238V7.05153ZM134.569 3.2928H136.188V4.7855C136.338 4.30556 136.644 3.88972 137.058 3.60446C137.472 3.31919 137.97 3.18096 138.472 3.21187V5.0103H138.4C137.087 5.0103 136.197 5.90952 136.197 7.60005V10.9541H134.578L134.569 3.2928ZM139.443 3.31978H141.061V7.95074C141.061 9.01182 141.565 9.59631 142.41 9.59631C143.256 9.59631 143.867 8.97585 143.867 7.92377V3.31978H145.504V10.9182H143.867V9.81212C143.669 10.1871 143.373 10.5013 143.01 10.7214C142.647 10.9415 142.232 11.0592 141.808 11.062C140.27 11.062 139.443 10.0369 139.443 8.40934V3.31978ZM147.122 0.604141H148.84V2.19575H147.122V0.604141ZM147.176 3.30179H148.795V10.9002H147.176V3.30179ZM150.773 9.06577V4.71356H149.946V3.31978H150.773V1.27855H152.392V3.31978H154.1V4.71356H152.392V8.75105C152.375 8.86268 152.385 8.97659 152.42 9.08378C152.456 9.19098 152.515 9.28853 152.594 9.36874C152.674 9.44895 152.771 9.50964 152.878 9.54601C152.984 9.58238 153.098 9.59344 153.21 9.57832C153.523 9.58876 153.832 9.51747 154.109 9.3715V10.7023C153.694 10.9229 153.23 11.0343 152.76 11.0261C152.497 11.0617 152.229 11.036 151.977 10.951C151.725 10.866 151.496 10.7239 151.308 10.536C151.12 10.348 150.978 10.1191 150.893 9.86723C150.808 9.61533 150.782 9.34721 150.818 9.08376L150.773 9.06577ZM155.377 0.613134H157.095V2.20475H155.377V0.613134ZM155.431 3.31078H157.05V10.9092H155.431V3.31078ZM158.758 3.31078H160.377V4.47977C160.577 4.10128 160.876 3.78378 161.241 3.56066C161.607 3.33754 162.026 3.21706 162.454 3.21187C163.911 3.21187 164.783 4.24597 164.783 5.86456V10.9541H163.173V6.2782C163.173 5.21712 162.67 4.63263 161.806 4.63263C160.943 4.63263 160.377 5.26208 160.377 6.30517V10.9092H158.758V3.31078ZM166.195 12.3839L166.725 11.107C167.41 11.5274 168.197 11.7514 169 11.7544C169.276 11.7971 169.557 11.7752 169.823 11.6903C170.088 11.6055 170.33 11.4601 170.53 11.2656C170.73 11.0712 170.882 10.833 170.973 10.5698C171.065 10.3066 171.095 10.0257 171.059 9.74918V9.01182C170.826 9.41267 170.493 9.74656 170.093 9.98126C169.693 10.216 169.239 10.3435 168.775 10.3517C167.256 10.3517 165.88 9.12872 165.88 6.75478V6.70083C165.88 4.35388 167.265 3.10396 168.775 3.10396C169.249 3.10953 169.712 3.2396 170.12 3.4811C170.527 3.7226 170.863 4.06702 171.095 4.47977V3.31978H172.714V9.68623C172.741 10.1449 172.676 10.6043 172.522 11.037C172.367 11.4697 172.127 11.8666 171.815 12.204C171.447 12.525 171.019 12.7698 170.556 12.9242C170.093 13.0786 169.604 13.1394 169.117 13.1033C168.114 13.1105 167.124 12.8663 166.24 12.3929L166.195 12.3839ZM171.077 6.78176C171.107 6.5204 171.084 6.25571 171.009 6.00361C170.933 5.75151 170.808 5.5172 170.64 5.31477C170.472 5.11234 170.265 4.94597 170.031 4.82565C169.797 4.70534 169.541 4.63357 169.279 4.61465C168.29 4.61465 167.525 5.43294 167.525 6.78176C167.525 8.13059 168.308 8.95787 169.279 8.95787C169.545 8.94352 169.805 8.87518 170.043 8.75701C170.282 8.63884 170.494 8.47332 170.666 8.27054C170.839 8.06777 170.968 7.83198 171.047 7.57757C171.125 7.32315 171.151 7.05544 171.122 6.79075L171.077 6.78176ZM177.714 7.1954V7.0875C177.714 4.81248 179.089 3.1759 180.951 3.1759C183.01 3.1759 184.107 4.9024 184.107 7.17742C184.107 7.27633 184.107 7.50113 184.107 7.73493H179.35C179.348 8.24783 179.547 8.74107 179.906 9.10793C180.264 9.4748 180.753 9.68577 181.265 9.69522C181.597 9.6886 181.923 9.61417 182.225 9.47653C182.527 9.3389 182.797 9.14096 183.019 8.89492L183.864 9.90204C183.526 10.2805 183.11 10.581 182.644 10.7829C182.178 10.9847 181.674 11.083 181.167 11.071C179.278 11.071 177.759 9.57833 177.759 7.17742L177.714 7.1954ZM182.524 6.61091C182.443 5.40596 181.895 4.53372 180.951 4.53372C180.007 4.53372 179.431 5.31604 179.314 6.61091H182.524ZM187.731 5.86456L189.206 3.31078H190.914L188.63 7.02455L191.013 10.9092H189.26L187.713 8.21152L186.157 10.9092H184.449L186.796 7.02455L184.539 3.31078H186.283L187.731 5.86456ZM191.93 3.31078H193.549V4.53372C193.763 4.12796 194.082 3.78709 194.472 3.54667C194.863 3.30625 195.311 3.1751 195.77 3.16691C197.29 3.16691 198.719 4.4438 198.719 7.00657V7.21339C198.719 9.75817 197.299 11.053 195.77 11.053C195.319 11.0493 194.877 10.9278 194.487 10.7007C194.098 10.4736 193.774 10.1487 193.549 9.75817V13.0673H191.93V3.31078ZM197.083 7.17742V7.05153C197.083 5.53185 196.3 4.60566 195.329 4.60566C194.358 4.60566 193.531 5.54983 193.531 7.04253V7.17742C193.531 8.67012 194.358 9.61429 195.329 9.61429C196.3 9.61429 197.128 8.70609 197.128 7.17742H197.083ZM199.618 7.17742V7.0875C199.618 4.81248 200.994 3.1759 202.856 3.1759C204.924 3.1759 206.012 4.9024 206.012 7.17742C206.012 7.27633 206.012 7.50113 206.012 7.73493H201.255C201.253 8.24936 201.453 8.74394 201.814 9.11105C202.174 9.47817 202.665 9.68812 203.179 9.69522C203.509 9.68738 203.834 9.61237 204.134 9.47477C204.434 9.33717 204.703 9.13987 204.924 8.89492L205.769 9.90204C205.432 10.2819 205.016 10.5835 204.55 10.7854C204.084 10.9874 203.579 11.0848 203.071 11.071C201.102 11.071 199.618 9.57833 199.618 7.17742ZM204.438 6.59292C204.348 5.38797 203.809 4.51574 202.856 4.51574C201.903 4.51574 201.345 5.29805 201.228 6.59292H204.438ZM207.262 3.2928H208.88V4.7855C209.024 4.30125 209.326 3.87962 209.739 3.58906C210.152 3.29849 210.651 3.15606 211.155 3.18489V4.98333H211.083C209.762 4.98333 208.88 5.88254 208.88 7.57307V10.9271H207.262V3.2928ZM212.657 9.05678V4.71356H211.83V3.31978H212.657V1.27855H214.276V3.31978H215.984V4.71356H214.276V8.75105C214.259 8.86268 214.269 8.97659 214.304 9.08378C214.34 9.19098 214.399 9.28853 214.479 9.36874C214.558 9.44895 214.655 9.50964 214.762 9.54601C214.868 9.58238 214.982 9.59344 215.094 9.57832C215.407 9.58876 215.717 9.51747 215.993 9.3715V10.7023C215.581 10.9218 215.12 11.0332 214.653 11.0261C214.383 11.0776 214.105 11.0638 213.841 10.9859C213.577 10.908 213.336 10.7683 213.137 10.5782C212.938 10.3882 212.788 10.1535 212.698 9.89353C212.608 9.63358 212.582 9.35595 212.621 9.08376L212.657 9.05678ZM216.605 9.956L217.36 8.79601C217.937 9.32312 218.675 9.63996 219.455 9.69522C220.13 9.69522 220.516 9.34453 220.516 8.86795C220.516 8.32842 219.923 8.08563 219.024 7.69896C217.891 7.21339 216.946 6.69184 216.946 5.45092C216.95 5.13944 217.018 4.83209 217.146 4.54792C217.273 4.26375 217.458 4.0088 217.688 3.79889C217.918 3.58897 218.189 3.42855 218.484 3.32758C218.778 3.2266 219.091 3.18722 219.401 3.21187C220.286 3.22556 221.145 3.50781 221.865 4.02117L221.2 5.21712C220.678 4.82273 220.053 4.58842 219.401 4.54271C218.808 4.54271 218.448 4.86643 218.448 5.28906C218.448 5.79262 219.051 6.0444 219.932 6.44905C221.11 6.97959 222 7.51912 222 8.70609C222 10.1988 220.867 11.0171 219.401 11.0171C218.368 11.0138 217.368 10.655 216.569 10.001L216.605 9.956ZM111.495 18.1838H113.159L114.445 23.3094L115.847 18.1658H117.223L118.626 23.3094L119.93 18.1838H121.566L119.426 25.8362H117.943L116.522 20.7646L115.092 25.8362H113.617L111.495 18.1838ZM121.98 22.0684V21.9336C121.939 21.4436 122 20.9505 122.157 20.4848C122.314 20.019 122.566 19.5904 122.895 19.2256C123.225 18.8607 123.625 18.5672 124.073 18.3633C124.52 18.1594 125.004 18.0493 125.496 18.04C127.501 18.04 128.976 19.6765 128.976 21.9246V22.0505C129.015 22.5397 128.954 23.0318 128.796 23.4965C128.638 23.9612 128.387 24.3887 128.057 24.7526C127.728 25.1164 127.328 25.4091 126.881 25.6125C126.434 25.8158 125.951 25.9256 125.46 25.9351C123.446 25.9351 121.971 24.3165 121.971 22.0684H121.98ZM127.375 22.0684V21.9875C127.375 20.5668 126.584 19.5057 125.478 19.5057C124.372 19.5057 123.617 20.5578 123.617 21.9695V22.0595C123.617 23.4802 124.408 24.5503 125.514 24.5503C126.62 24.5503 127.348 23.4532 127.348 22.0325L127.375 22.0684ZM130.271 18.2198H131.889V19.6765C132.034 19.1923 132.336 18.7705 132.749 18.4787C133.161 18.1868 133.66 18.0419 134.164 18.0669V19.8654H134.093C132.78 19.8654 131.889 20.7646 131.889 22.4641V25.8092H130.271V18.2198ZM135.298 15.4682H136.916V25.8092H135.298V15.4682ZM138.31 22.1134V21.9336C138.31 19.3618 139.731 18.0759 141.259 18.0759C141.709 18.0814 142.149 18.2026 142.538 18.4279C142.927 18.6531 143.252 18.9747 143.48 19.3618V15.4322H145.099V25.7732H143.48V24.5593C143.264 24.9627 142.945 25.3013 142.554 25.54C142.164 25.7787 141.717 25.9088 141.259 25.9171C139.713 25.9171 138.283 24.6402 138.283 22.0774L138.31 22.1134ZM143.507 22.1134V21.9695C143.507 20.4768 142.68 19.5327 141.709 19.5327C140.738 19.5327 139.955 20.4319 139.955 21.9875V22.0954C139.955 23.6151 140.738 24.5503 141.709 24.5503C142.68 24.5503 143.48 23.5432 143.48 22.0505L143.507 22.1134ZM146.205 18.2468H147.869L149.154 23.3723L150.566 18.2288H151.942L153.345 23.3723L154.649 18.2468H156.276L154.145 25.8991H152.652L151.232 20.8275L149.802 25.8991H148.327L146.205 18.2468ZM157.382 15.5491H159.1V17.0688H157.355L157.382 15.5491ZM157.445 18.2468H159.064V25.8362H157.445V18.2468ZM160.449 22.1404V21.9605C160.449 19.3888 161.869 18.1029 163.407 18.1029C163.855 18.1099 164.294 18.2319 164.681 18.457C165.068 18.6822 165.391 19.003 165.619 19.3888V15.4322H167.247V25.7732H165.619V24.5593C165.406 24.9633 165.088 25.3025 164.699 25.5414C164.31 25.7803 163.864 25.9101 163.407 25.9171C161.851 25.9171 160.404 24.6402 160.404 22.0774L160.449 22.1404ZM165.655 22.1404V21.9965C165.655 20.5038 164.819 19.5596 163.857 19.5596C162.894 19.5596 162.058 20.4588 162.058 22.0145V22.1224C162.058 23.6421 162.85 24.5773 163.857 24.5773C164.864 24.5773 165.61 23.5432 165.61 22.0505L165.655 22.1404ZM168.524 22.1404V22.0235C168.524 19.7485 169.89 18.1119 171.761 18.1119C173.82 18.1119 174.908 19.8294 174.908 22.1044C174.908 22.2123 174.908 22.4371 174.908 22.6709H170.151C170.149 23.1838 170.348 23.6771 170.707 24.0439C171.065 24.4108 171.554 24.6218 172.066 24.6312C172.397 24.6255 172.722 24.5514 173.023 24.4137C173.323 24.276 173.591 24.0775 173.811 23.8309L174.656 24.829C174.32 25.2101 173.904 25.513 173.438 25.7165C172.972 25.9199 172.467 26.0191 171.959 26.007C169.989 25.9351 168.479 24.4424 168.479 22.0684L168.524 22.1404ZM173.334 21.5469C173.244 20.3509 172.705 19.4697 171.761 19.4697C170.817 19.4697 170.241 20.261 170.124 21.5469H173.334Z"/>
</symbol><symbol id="checked" viewBox="0 0 16 16">
<path d="M13 4L6.49206 12L3 8.8" stroke-width="2" stroke-linecap="round" stroke-linejoin="round"/>
</symbol><symbol id="close" viewBox="0 0 16 16">
<path d="M13 13L8 8M8 8L3 3M8 8L3 13M8 8L13 3" stroke-width="2" stroke-linecap="round" stroke-linejoin="round"/>
</symbol><symbol id="download" viewBox="0 0 16 16">
<path fill-rule="evenodd" clip-rule="evenodd" d="M6 6H4L8 11L12 6H10V2H6V6ZM15 15V13H1V15H15Z"/>
</symbol><symbol id="minus" viewBox="0 0 16 16">
<path d="M13.5 8H2.5" stroke-width="2"/>
</symbol><symbol id="new_resume" viewBox="0 0 16 16">
<path d="M11.88 7.99997V14.76C11.88 15.072 11.672 15.28 11.36 15.28H2.52C2.208 15.28 2 15.072 2 14.76V3.31997C2 3.00797 2.208 2.79997 2.52 2.79997H7.876C7.772 3.11197 7.72 3.47597 7.72 3.83997C7.72 6.12797 9.592 7.99997 11.88 7.99997ZM15 3.83997C15 5.55597 13.596 6.95997 11.88 6.95997C10.164 6.95997 8.76 5.55597 8.76 3.83997C8.76 2.12397 10.164 0.719971 11.88 0.719971C13.596 0.719971 15 2.12397 15 3.83997ZM13.44 3.57997C13.44 3.42397 13.336 3.31997 13.18 3.31997H12.4V2.53997C12.4 2.38397 12.296 2.27997 12.14 2.27997H11.62C11.464 2.27997 11.36 2.38397 11.36 2.53997V3.31997H10.58C10.424 3.31997 10.32 3.42397 10.32 3.57997V4.09997C10.32 4.25597 10.424 4.35997 10.58 4.35997H11.36V5.13997C11.36 5.29597 11.464 5.39997 11.62 5.39997H12.14C12.296 5.39997 12.4 5.29597 12.4 5.13997V4.35997H13.18C13.336 4.35997 13.44 4.25597 13.44 4.09997V3.57997Z"/>
</symbol><symbol id="plus" viewBox="0 0 16 16">
<path d="M13.5 8H2.5M8 13.5V2.5" stroke-width="2"/>
</symbol><symbol id="right_old" viewBox="0 0 16 16">
<circle cx="8" cy="8" r="7.5"/>
<path d="M6 4L10 8L6 12" stroke-width="2" stroke-linecap="round" stroke-linejoin="round"/>
</symbol><symbol id="search" viewBox="0 0 16 16">
<path d="M9.74074 9.74074L13.5 13.5M10.963 6.48148C10.963 8.95654 8.95654 10.963 6.48148 10.963C4.00643 10.963 2 8.95654 2 6.48148C2 4.00643 4.00643 2 6.48148 2C8.95654 2 10.963 4.00643 10.963 6.48148Z" stroke-width="2" stroke-linecap="round" stroke-linejoin="round"/>
</symbol><symbol id="send" viewBox="0 0 16 16">
<path d="M7.35 8.85L2 3.5H14L8.65 8.85C8.55 8.95 8.4 9 8.3 9H7.7C7.6 9 7.45 8.95 7.35 8.85ZM5.1 8L2 4.9V11.05L5.1 8ZM10.9 8L14 11.1V4.95L10.9 8ZM9.2 9.7C9.05 9.85 8.7 10 8.5 10H7.5C7.25 10 6.95 9.85 6.8 9.7L5.8 8.7L2 12.5H14L10.2 8.7L9.2 9.7Z"/>
</symbol><symbol id="slash" viewBox="0 0 16 16">
<path d="M10.75 3.2369L5.25 12.7632" stroke-width="2"/>
</symbol><symbol id="upload" viewBox="0 0 16 16">
<path fill-rule="evenodd" clip-rule="evenodd" d="M10 7L12 7L8 2L4 7L6 7V11H10V7ZM15 13H1V15H15V13Z"/>
</symbol><symbol id="user" viewBox="0 0 16 16">
<path d="M13 11.2583V12.5417C13 12.8167 12.8261 13 12.5652 13H3.43478C3.17391 13 3 12.8167 3 12.5417V11.2583C3 10.9833 3.17391 10.7083 3.3913 10.6167L5.6087 9.37917C5.95652 10.1583 6.73913 10.6625 7.56522 10.6625H8.3913C9.21739 10.6625 10 10.1583 10.3478 9.37917L12.5652 10.6167C12.8261 10.7542 13 11.0292 13 11.2583ZM5.43479 6.62917C5.52174 6.90417 5.73913 7.13333 6 7.31667L6.30435 8.7375C6.43479 9.37917 6.95652 9.8375 7.56522 9.8375H8.3913C9 9.8375 9.52174 9.37917 9.65217 8.7375L9.95652 7.31667C10.2174 7.17917 10.4348 6.90417 10.5217 6.62917L10.6522 6.2625C10.7826 5.89583 10.6522 5.575 10.3913 5.48333C10.3913 5.48333 10.3913 4.75 10.3913 4.29167C10.3913 2.91667 9.52174 2 8 2C6.47826 2 5.6087 2.91667 5.6087 4.29167C5.6087 5.20833 5.6087 5.48333 5.6087 5.48333C5.34783 5.62083 5.21739 5.94167 5.34782 6.2625L5.43479 6.62917Z"/>
</symbol><symbol id="arrow_double_close" viewBox="0 0 16 16">
<path fill-rule="evenodd" clip-rule="evenodd" d="M12 2L8 6L4 2H12ZM4 14L8 10L12 14L4 14Z"/>
</symbol><symbol id="arrow_double_open" viewBox="0 0 16 16">
<path fill-rule="evenodd" clip-rule="evenodd" d="M12 6L8 2L4 6H12ZM4 10L8 14L12 10L4 10Z"/>
</symbol><symbol id="arrow_down_1" viewBox="0 0 16 16">
<path d="M13 6L8 11L3 6" stroke-width="2"/>
</symbol><symbol id="arrow_down_2" viewBox="0 0 16 16">
<path d="M8 11L13 5H3L8 11Z"/>
</symbol><symbol id="arrow_left_1" viewBox="0 0 16 16">
<path d="M10 3L5 8L10 13" stroke-width="2"/>
</symbol><symbol id="arrow_left_2" viewBox="0 0 16 16">
<path d="M5 8L11 3V13L5 8Z"/>
</symbol><symbol id="arrow_right_1" viewBox="0 0 16 16">
<path d="M5 3L10 8L5 13" stroke-width="2"/>
</symbol><symbol id="arrow_right_2" viewBox="0 0 16 16">
<path d="M11 8L5 3L5 13L11 8Z"/>
</symbol><symbol id="arrow_up_1" viewBox="0 0 16 16">
<path d="M3 11L8 6L13 11" stroke-width="2"/>
</symbol><symbol id="arrow_up_2" viewBox="0 0 16 16">
<path d="M8 5L13 11H3L8 5Z"/>
</symbol></svg>